<svg xmlns="http://www.w3.org/2000/svg" width="1920" height="1080"><path d="M-182,-247L100,-228L432,-240Z" fill="#e5eff9" stroke="#e5eff9" stroke-width="1.51"/><path d="M-182,-247L432,-240L862,-246Z" fill="#dce9f6" stroke="#dce9f6" stroke-width="1.51"/><path d="M451,1321L-1,1328L928,1324Z" fill="#6a81ae" stroke="#6a81ae" stroke-width="1.51"/><path d="M-182,-247L862,-246L1133,-248Z" fill="#cce2f1" stroke="#cce2f1" stroke-width="1.51"/><path d="M1232,1300L928,1324L1744,1344Z" fill="#27609c" stroke="#27609c" stroke-width="1.51"/><path d="M-182,-247L1133,-248L1981,-259Z" fill="#b2d1ea" stroke="#b2d1ea" stroke-width="1.51"/><path d="M1441,-227L1610,-226L1981,-259Z" fill="#93aad4" stroke="#93aad4" stroke-width="1.51"/><path d="M1133,-248L1441,-227L1981,-259Z" fill="#98b4da" stroke="#98b4da" stroke-width="1.51"/><path d="M1610,-226L1753,-224L1981,-259Z" fill="#91a4d0" stroke="#91a4d0" stroke-width="1.51"/><path d="M1946,-11L2072,79L2079,-86Z" fill="#7b8cb9" stroke="#7b8cb9" stroke-width="1.51"/><path d="M1896,419L1977,582L2092,379Z" fill="#4e7bb0" stroke="#4e7bb0" stroke-width="1.51"/><path d="M2072,79L2057,225L2092,379Z" fill="#6881af" stroke="#6881af" stroke-width="1.51"/><path d="M1936,1239L1744,1344L2093,1261Z" fill="#094387" stroke="#094387" stroke-width="1.51"/><path d="M2051,992L2038,1193L2093,1261Z" fill="#0a478c" stroke="#0a478c" stroke-width="1.51"/><path d="M2092,379L1977,582L2094,555Z" fill="#4674a9" stroke="#4674a9" stroke-width="1.51"/><path d="M2072,79L2092,379L2101,-201Z" fill="#7386b2" stroke="#7386b2" stroke-width="1.51"/><path d="M2079,-86L2072,79L2101,-201Z" fill="#7d8bb6" stroke="#7d8bb6" stroke-width="1.51"/><path d="M1909,825L2051,992L2126,844Z" fill="#1e5c9d" stroke="#1e5c9d" stroke-width="1.51"/><path d="M2094,667L1926,695L2126,844Z" fill="#2b66a1" stroke="#2b66a1" stroke-width="1.51"/><path d="M1926,695L1909,825L2126,844Z" fill="#2766a5" stroke="#2766a5" stroke-width="1.51"/><path d="M2051,992L2093,1261L2126,844Z" fill="#114d90" stroke="#114d90" stroke-width="1.51"/><path d="M2094,555L2094,667L2126,844Z" fill="#31669e" stroke="#31669e" stroke-width="1.51"/><path d="M2101,-201L2092,379L2126,844Z" fill="#5b7ba9" stroke="#5b7ba9" stroke-width="1.51"/><path d="M2092,379L2094,555L2126,844Z" fill="#3b6ca2" stroke="#3b6ca2" stroke-width="1.51"/><path d="M1910,1170L2038,1193L2051,992Z" fill="#0c4c93" stroke="#0c4c93" stroke-width="1.51"/><path d="M2057,225L1896,419L2092,379Z" fill="#5d81b1" stroke="#5d81b1" stroke-width="1.51"/><path d="M2094,555L1977,582L2094,667Z" fill="#3b6ea6" stroke="#3b6ea6" stroke-width="1.51"/><path d="M1981,-259L2079,-86L2101,-201Z" fill="#8591ba" stroke="#8591ba" stroke-width="1.51"/><path d="M1925,192L2057,225L2072,79Z" fill="#6f87b6" stroke="#6f87b6" stroke-width="1.51"/><path d="M1977,582L1926,695L2094,667Z" fill="#376ea9" stroke="#376ea9" stroke-width="1.51"/><path d="M1909,825L1881,944L2051,992Z" fill="#1a5ea2" stroke="#1a5ea2" stroke-width="1.51"/><path d="M2038,1193L1936,1239L2093,1261Z" fill="#094285" stroke="#094285" stroke-width="1.51"/><path d="M1925,192L1896,419L2057,225Z" fill="#6587b8" stroke="#6587b8" stroke-width="1.51"/><path d="M1894,78L1925,192L2072,79Z" fill="#758cbc" stroke="#758cbc" stroke-width="1.51"/><path d="M1981,-259L1946,-11L2079,-86Z" fill="#8292be" stroke="#8292be" stroke-width="1.51"/><path d="M1946,-11L1894,78L2072,79Z" fill="#798fbd" stroke="#798fbd" stroke-width="1.51"/><path d="M1881,944L1910,1170L2051,992Z" fill="#12559c" stroke="#12559c" stroke-width="1.51"/><path d="M1910,1170L1936,1239L2038,1193Z" fill="#09488e" stroke="#09488e" stroke-width="1.51"/><path d="M1881,944L1821,988L1910,1170Z" fill="#125aa2" stroke="#125aa2" stroke-width="1.51"/><path d="M1779,243L1896,419L1925,192Z" fill="#688cbf" stroke="#688cbf" stroke-width="1.51"/><path d="M1896,419L1735,498L1977,582Z" fill="#4b80b9" stroke="#4b80b9" stroke-width="1.51"/><path d="M1745,-92L1946,-11L1981,-259Z" fill="#869ac8" stroke="#869ac8" stroke-width="1.51"/><path d="M1753,-224L1745,-92L1981,-259Z" fill="#8da0cd" stroke="#8da0cd" stroke-width="1.51"/><path d="M1745,654L1926,695L1977,582Z" fill="#3976b3" stroke="#3976b3" stroke-width="1.51"/><path d="M1735,498L1745,654L1977,582Z" fill="#427eb9" stroke="#427eb9" stroke-width="1.51"/><path d="M1779,243L1781,412L1896,419Z" fill="#608cbf" stroke="#608cbf" stroke-width="1.51"/><path d="M1840,883L1881,944L1909,825Z" fill="#1f65aa" stroke="#1f65aa" stroke-width="1.51"/><path d="M1821,988L1751,1090L1910,1170Z" fill="#1058a2" stroke="#1058a2" stroke-width="1.51"/><path d="M1827,49L1894,78L1946,-11Z" fill="#7c94c4" stroke="#7c94c4" stroke-width="1.51"/><path d="M1745,-92L1827,49L1946,-11Z" fill="#8199c9" stroke="#8199c9" stroke-width="1.51"/><path d="M1745,654L1909,825L1926,695Z" fill="#2f72b2" stroke="#2f72b2" stroke-width="1.51"/><path d="M1910,1170L1744,1344L1936,1239Z" fill="#094990" stroke="#094990" stroke-width="1.51"/><path d="M1361,1255L1232,1300L1744,1344Z" fill="#1f5b9a" stroke="#1f5b9a" stroke-width="1.51"/><path d="M1781,412L1735,498L1896,419Z" fill="#5587be" stroke="#5587be" stroke-width="1.51"/><path d="M1894,78L1779,243L1925,192Z" fill="#7390c3" stroke="#7390c3" stroke-width="1.51"/><path d="M1634,1279L1361,1255L1744,1344Z" fill="#165497" stroke="#165497" stroke-width="1.51"/><path d="M1827,49L1779,243L1894,78Z" fill="#7894c6" stroke="#7894c6" stroke-width="1.51"/><path d="M1745,654L1840,883L1909,825Z" fill="#296fb0" stroke="#296fb0" stroke-width="1.51"/><path d="M1751,1090L1744,1344L1910,1170Z" fill="#0c5099" stroke="#0c5099" stroke-width="1.51"/><path d="M1840,883L1821,988L1881,944Z" fill="#1962a9" stroke="#1962a9" stroke-width="1.51"/><path d="M1634,1279L1744,1344L1751,1090Z" fill="#115298" stroke="#115298" stroke-width="1.51"/><path d="M1662,67L1779,243L1827,49Z" fill="#7b99ca" stroke="#7b99ca" stroke-width="1.51"/><path d="M1745,654L1600,811L1840,883Z" fill="#2c75b5" stroke="#2c75b5" stroke-width="1.51"/><path d="M1630,975L1821,988L1840,883Z" fill="#1b66ac" stroke="#1b66ac" stroke-width="1.51"/><path d="M1600,811L1630,975L1840,883Z" fill="#246fb2" stroke="#246fb2" stroke-width="1.51"/><path d="M1779,243L1670,282L1781,412Z" fill="#6792c4" stroke="#6792c4" stroke-width="1.51"/><path d="M1745,-92L1648,-21L1827,49Z" fill="#849fcd" stroke="#849fcd" stroke-width="1.51"/><path d="M1648,-21L1662,67L1827,49Z" fill="#819fcd" stroke="#819fcd" stroke-width="1.51"/><path d="M1606,1150L1634,1279L1751,1090Z" fill="#125aa2" stroke="#125aa2" stroke-width="1.51"/><path d="M1630,975L1751,1090L1821,988Z" fill="#1862a9" stroke="#1862a9" stroke-width="1.51"/><path d="M1485,1238L1361,1255L1634,1279Z" fill="#1c5c9e" stroke="#1c5c9e" stroke-width="1.51"/><path d="M1618,658L1600,811L1745,654Z" fill="#377fbb" stroke="#377fbb" stroke-width="1.51"/><path d="M1662,67L1670,282L1779,243Z" fill="#7599ca" stroke="#7599ca" stroke-width="1.51"/><path d="M1627,414L1735,498L1781,412Z" fill="#578cc2" stroke="#578cc2" stroke-width="1.51"/><path d="M1670,282L1627,414L1781,412Z" fill="#6292c5" stroke="#6292c5" stroke-width="1.51"/><path d="M1611,497L1618,658L1735,498Z" fill="#4889c1" stroke="#4889c1" stroke-width="1.51"/><path d="M1735,498L1618,658L1745,654Z" fill="#4183bd" stroke="#4183bd" stroke-width="1.51"/><path d="M1630,975L1606,1150L1751,1090Z" fill="#1862a9" stroke="#1862a9" stroke-width="1.51"/><path d="M1610,-226L1745,-92L1753,-224Z" fill="#8fa7d2" stroke="#8fa7d2" stroke-width="1.51"/><path d="M1610,-226L1648,-21L1745,-92Z" fill="#8ca6d2" stroke="#8ca6d2" stroke-width="1.51"/><path d="M1627,414L1611,497L1735,498Z" fill="#548dc4" stroke="#548dc4" stroke-width="1.51"/><path d="M1600,811L1505,887L1630,975Z" fill="#2775b6" stroke="#2775b6" stroke-width="1.51"/><path d="M1610,-226L1477,-84L1648,-21Z" fill="#8eabd6" stroke="#8eabd6" stroke-width="1.51"/><path d="M1496,43L1524,257L1662,67Z" fill="#80a4d2" stroke="#80a4d2" stroke-width="1.51"/><path d="M1662,67L1524,257L1670,282Z" fill="#769ecd" stroke="#769ecd" stroke-width="1.51"/><path d="M1524,257L1627,414L1670,282Z" fill="#6a9aca" stroke="#6a9aca" stroke-width="1.51"/><path d="M1606,1150L1535,1192L1634,1279Z" fill="#165ba1" stroke="#165ba1" stroke-width="1.51"/><path d="M1648,-21L1496,43L1662,67Z" fill="#84a5d2" stroke="#84a5d2" stroke-width="1.51"/><path d="M1524,257L1454,355L1627,414Z" fill="#699dcc" stroke="#699dcc" stroke-width="1.51"/><path d="M1442,1004L1606,1150L1630,975Z" fill="#1d6aaf" stroke="#1d6aaf" stroke-width="1.51"/><path d="M1477,-84L1496,43L1648,-21Z" fill="#89aad6" stroke="#89aad6" stroke-width="1.51"/><path d="M1451,742L1600,811L1618,658Z" fill="#3582be" stroke="#3582be" stroke-width="1.51"/><path d="M1611,497L1429,509L1618,658Z" fill="#4a8ec5" stroke="#4a8ec5" stroke-width="1.51"/><path d="M1535,1192L1485,1238L1634,1279Z" fill="#175b9f" stroke="#175b9f" stroke-width="1.51"/><path d="M1505,887L1442,1004L1630,975Z" fill="#2473b6" stroke="#2473b6" stroke-width="1.51"/><path d="M1442,1004L1535,1192L1606,1150Z" fill="#1c66ac" stroke="#1c66ac" stroke-width="1.51"/><path d="M1454,355L1611,497L1627,414Z" fill="#5d96c9" stroke="#5d96c9" stroke-width="1.51"/><path d="M1441,-227L1477,-84L1610,-226Z" fill="#95b2da" stroke="#95b2da" stroke-width="1.51"/><path d="M1454,355L1429,509L1611,497Z" fill="#5b98ca" stroke="#5b98ca" stroke-width="1.51"/><path d="M1429,509L1451,742L1618,658Z" fill="#448cc3" stroke="#448cc3" stroke-width="1.51"/><path d="M1451,742L1505,887L1600,811Z" fill="#317ebc" stroke="#317ebc" stroke-width="1.51"/><path d="M130,1310L-1,1328L451,1321Z" fill="#7788b3" stroke="#7788b3" stroke-width="1.51"/><path d="M1133,-248L1322,-185L1441,-227Z" fill="#9fc1e0" stroke="#9fc1e0" stroke-width="1.51"/><path d="M1496,43L1328,136L1524,257Z" fill="#82aad5" stroke="#82aad5" stroke-width="1.51"/><path d="M1389,1084L1485,1238L1535,1192Z" fill="#1f65a9" stroke="#1f65a9" stroke-width="1.51"/><path d="M1442,1004L1389,1084L1535,1192Z" fill="#226baf" stroke="#226baf" stroke-width="1.51"/><path d="M1429,509L1336,723L1451,742Z" fill="#4690c6" stroke="#4690c6" stroke-width="1.51"/><path d="M1300,236L1454,355L1524,257Z" fill="#74a6d1" stroke="#74a6d1" stroke-width="1.51"/><path d="M1328,136L1300,236L1524,257Z" fill="#7dabd4" stroke="#7dabd4" stroke-width="1.51"/><path d="M1279,594L1336,723L1429,509Z" fill="#4d96c9" stroke="#4d96c9" stroke-width="1.51"/><path d="M1389,1084L1361,1255L1485,1238Z" fill="#2265a8" stroke="#2265a8" stroke-width="1.51"/><path d="M1477,-84L1359,-7L1496,43Z" fill="#8db0d9" stroke="#8db0d9" stroke-width="1.51"/><path d="M1451,742L1307,804L1505,887Z" fill="#3683bf" stroke="#3683bf" stroke-width="1.51"/><path d="M1307,804L1442,1004L1505,887Z" fill="#2f7dbb" stroke="#2f7dbb" stroke-width="1.51"/><path d="M432,-240L588,-217L862,-246Z" fill="#cae1f0" stroke="#cae1f0" stroke-width="1.51"/><path d="M1441,-227L1322,-185L1477,-84Z" fill="#98b8dc" stroke="#98b8dc" stroke-width="1.51"/><path d="M1359,-7L1328,136L1496,43Z" fill="#8ab0d8" stroke="#8ab0d8" stroke-width="1.51"/><path d="M1307,804L1329,1016L1442,1004Z" fill="#2f7dbb" stroke="#2f7dbb" stroke-width="1.51"/><path d="M1304,412L1429,509L1454,355Z" fill="#639fcd" stroke="#639fcd" stroke-width="1.51"/><path d="M1322,-185L1359,-7L1477,-84Z" fill="#94b6dc" stroke="#94b6dc" stroke-width="1.51"/><path d="M1336,723L1307,804L1451,742Z" fill="#3d8bc3" stroke="#3d8bc3" stroke-width="1.51"/><path d="M1300,236L1304,412L1454,355Z" fill="#71a8d1" stroke="#71a8d1" stroke-width="1.51"/><path d="M1329,1016L1389,1084L1442,1004Z" fill="#2974b5" stroke="#2974b5" stroke-width="1.51"/><path d="M1304,412L1279,594L1429,509Z" fill="#5a9ecd" stroke="#5a9ecd" stroke-width="1.51"/><path d="M1307,804L1226,956L1329,1016Z" fill="#3582be" stroke="#3582be" stroke-width="1.51"/><path d="M1129,1177L1232,1300L1361,1255Z" fill="#2d6aa7" stroke="#2d6aa7" stroke-width="1.51"/><path d="M1129,1177L1361,1255L1389,1084Z" fill="#2a6eae" stroke="#2a6eae" stroke-width="1.51"/><path d="M1329,1016L1129,1177L1389,1084Z" fill="#2d75b4" stroke="#2d75b4" stroke-width="1.51"/><path d="M1078,1267L928,1324L1232,1300Z" fill="#396da5" stroke="#396da5" stroke-width="1.51"/><path d="M1168,93L1328,136L1359,-7Z" fill="#8db6db" stroke="#8db6db" stroke-width="1.51"/><path d="M1170,-25L1168,93L1359,-7Z" fill="#93bbdd" stroke="#93bbdd" stroke-width="1.51"/><path d="M1322,-185L1170,-25L1359,-7Z" fill="#96bbde" stroke="#96bbde" stroke-width="1.51"/><path d="M1137,570L1279,594L1304,412Z" fill="#5ba2cf" stroke="#5ba2cf" stroke-width="1.51"/><path d="M1300,236L1228,230L1304,412Z" fill="#78aed5" stroke="#78aed5" stroke-width="1.51"/><path d="M1228,230L1133,373L1304,412Z" fill="#76afd5" stroke="#76afd5" stroke-width="1.51"/><path d="M1178,824L1226,956L1307,804Z" fill="#3d89c2" stroke="#3d89c2" stroke-width="1.51"/><path d="M1228,230L1300,236L1328,136Z" fill="#82b1d8" stroke="#82b1d8" stroke-width="1.51"/><path d="M1226,956L1129,1177L1329,1016Z" fill="#337bb8" stroke="#337bb8" stroke-width="1.51"/><path d="M1156,715L1307,804L1336,723Z" fill="#4291c6" stroke="#4291c6" stroke-width="1.51"/><path d="M1279,594L1156,715L1336,723Z" fill="#4a96c9" stroke="#4a96c9" stroke-width="1.51"/><path d="M1133,-248L1170,-25L1322,-185Z" fill="#9fc3e2" stroke="#9fc3e2" stroke-width="1.51"/><path d="M1168,93L1228,230L1328,136Z" fill="#89b6da" stroke="#89b6da" stroke-width="1.51"/><path d="M1133,373L1137,570L1304,412Z" fill="#69a9d3" stroke="#69a9d3" stroke-width="1.51"/><path d="M1156,715L1178,824L1307,804Z" fill="#4391c6" stroke="#4391c6" stroke-width="1.51"/><path d="M1137,570L1156,715L1279,594Z" fill="#549dcd" stroke="#549dcd" stroke-width="1.51"/><path d="M720,1270L451,1321L928,1324Z" fill="#597cac" stroke="#597cac" stroke-width="1.51"/><path d="M1133,373L1082,528L1137,570Z" fill="#68aad4" stroke="#68aad4" stroke-width="1.51"/><path d="M1133,-248L1036,-174L1170,-25Z" fill="#a4c7e4" stroke="#a4c7e4" stroke-width="1.51"/><path d="M1036,-174L1025,-104L1170,-25Z" fill="#a3c7e4" stroke="#a3c7e4" stroke-width="1.51"/><path d="M1039,1112L1129,1177L1226,956Z" fill="#3a7db9" stroke="#3a7db9" stroke-width="1.51"/><path d="M1014,1021L1039,1112L1226,956Z" fill="#3f82bd" stroke="#3f82bd" stroke-width="1.51"/><path d="M1005,273L1133,373L1228,230Z" fill="#81b6d9" stroke="#81b6d9" stroke-width="1.51"/><path d="M1129,1177L1078,1267L1232,1300Z" fill="#356da9" stroke="#356da9" stroke-width="1.51"/><path d="M1178,824L1014,1021L1226,956Z" fill="#3f88c2" stroke="#3f88c2" stroke-width="1.51"/><path d="M1168,93L1005,273L1228,230Z" fill="#8ab9dc" stroke="#8ab9dc" stroke-width="1.51"/><path d="M1017,52L1005,273L1168,93Z" fill="#94bfdf" stroke="#94bfdf" stroke-width="1.51"/><path d="M1017,52L1168,93L1170,-25Z" fill="#98c0e0" stroke="#98c0e0" stroke-width="1.51"/><path d="M988,850L1014,1021L1178,824Z" fill="#478fc5" stroke="#478fc5" stroke-width="1.51"/><path d="M1156,715L984,735L1178,824Z" fill="#4d98ca" stroke="#4d98ca" stroke-width="1.51"/><path d="M984,735L988,850L1178,824Z" fill="#4e97c9" stroke="#4e97c9" stroke-width="1.51"/><path d="M1137,570L984,735L1156,715Z" fill="#569fce" stroke="#569fce" stroke-width="1.51"/><path d="M1025,-104L1017,52L1170,-25Z" fill="#9ec5e3" stroke="#9ec5e3" stroke-width="1.51"/><path d="M1082,528L984,735L1137,570Z" fill="#5ea4d0" stroke="#5ea4d0" stroke-width="1.51"/><path d="M862,-246L1036,-174L1133,-248Z" fill="#aecfe8" stroke="#aecfe8" stroke-width="1.51"/><path d="M986,354L1082,528L1133,373Z" fill="#75b1d7" stroke="#75b1d7" stroke-width="1.51"/><path d="M1005,273L986,354L1133,373Z" fill="#81b8da" stroke="#81b8da" stroke-width="1.51"/><path d="M1039,1112L1078,1267L1129,1177Z" fill="#3b76b2" stroke="#3b76b2" stroke-width="1.51"/><path d="M919,103L1005,273L1017,52Z" fill="#98c3e2" stroke="#98c3e2" stroke-width="1.51"/><path d="M1039,1112L928,1324L1078,1267Z" fill="#3f75ae" stroke="#3f75ae" stroke-width="1.51"/><path d="M986,354L869,538L1082,528Z" fill="#73b1d8" stroke="#73b1d8" stroke-width="1.51"/><path d="M869,538L984,735L1082,528Z" fill="#65a9d3" stroke="#65a9d3" stroke-width="1.51"/><path d="M869,538L833,693L984,735Z" fill="#67a9d3" stroke="#67a9d3" stroke-width="1.51"/><path d="M924,353L869,538L986,354Z" fill="#7eb8da" stroke="#7eb8da" stroke-width="1.51"/><path d="M988,850L828,963L1014,1021Z" fill="#4e90c7" stroke="#4e90c7" stroke-width="1.51"/><path d="M873,-89L1017,52L1025,-104Z" fill="#a5cbe6" stroke="#a5cbe6" stroke-width="1.51"/><path d="M1014,1021L878,1088L1039,1112Z" fill="#4684bd" stroke="#4684bd" stroke-width="1.51"/><path d="M878,1088L928,1324L1039,1112Z" fill="#467db7" stroke="#467db7" stroke-width="1.51"/><path d="M919,103L847,234L1005,273Z" fill="#96c3e1" stroke="#96c3e1" stroke-width="1.51"/><path d="M873,-89L1025,-104L1036,-174Z" fill="#a9cde7" stroke="#a9cde7" stroke-width="1.51"/><path d="M862,-246L873,-89L1036,-174Z" fill="#b0d1e9" stroke="#b0d1e9" stroke-width="1.51"/><path d="M984,735L918,824L988,850Z" fill="#549bcb" stroke="#549bcb" stroke-width="1.51"/><path d="M873,-89L919,103L1017,52Z" fill="#a3c9e5" stroke="#a3c9e5" stroke-width="1.51"/><path d="M918,824L828,963L988,850Z" fill="#5597ca" stroke="#5597ca" stroke-width="1.51"/><path d="M924,353L986,354L1005,273Z" fill="#86bcdb" stroke="#86bcdb" stroke-width="1.51"/><path d="M828,963L878,1088L1014,1021Z" fill="#4f8bc2" stroke="#4f8bc2" stroke-width="1.51"/><path d="M847,234L924,353L1005,273Z" fill="#8dbfde" stroke="#8dbfde" stroke-width="1.51"/><path d="M833,693L918,824L984,735Z" fill="#5ca1cf" stroke="#5ca1cf" stroke-width="1.51"/><path d="M730,-39L778,105L873,-89Z" fill="#b0d1e8" stroke="#b0d1e8" stroke-width="1.51"/><path d="M743,1107L720,1270L878,1088Z" fill="#5786bc" stroke="#5786bc" stroke-width="1.51"/><path d="M873,-89L778,105L919,103Z" fill="#a8cde6" stroke="#a8cde6" stroke-width="1.51"/><path d="M778,105L847,234L919,103Z" fill="#a2c8e4" stroke="#a2c8e4" stroke-width="1.51"/><path d="M702,376L765,502L924,353Z" fill="#8abedd" stroke="#8abedd" stroke-width="1.51"/><path d="M765,502L869,538L924,353Z" fill="#7fb8da" stroke="#7fb8da" stroke-width="1.51"/><path d="M878,1088L720,1270L928,1324Z" fill="#4f7db2" stroke="#4f7db2" stroke-width="1.51"/><path d="M847,234L702,376L924,353Z" fill="#92c3df" stroke="#92c3df" stroke-width="1.51"/><path d="M590,1260L451,1321L720,1270Z" fill="#6382b0" stroke="#6382b0" stroke-width="1.51"/><path d="M833,693L694,866L918,824Z" fill="#64a2cf" stroke="#64a2cf" stroke-width="1.51"/><path d="M694,866L828,963L918,824Z" fill="#5f9bcb" stroke="#5f9bcb" stroke-width="1.51"/><path d="M688,732L694,866L833,693Z" fill="#6ca9d2" stroke="#6ca9d2" stroke-width="1.51"/><path d="M588,-217L683,-179L862,-246Z" fill="#c3dded" stroke="#c3dded" stroke-width="1.51"/><path d="M765,502L833,693L869,538Z" fill="#75b2d7" stroke="#75b2d7" stroke-width="1.51"/><path d="M862,-246L683,-179L873,-89Z" fill="#b9d7eb" stroke="#b9d7eb" stroke-width="1.51"/><path d="M683,-179L730,-39L873,-89Z" fill="#b8d6ea" stroke="#b8d6ea" stroke-width="1.51"/><path d="M828,963L732,1019L878,1088Z" fill="#5890c4" stroke="#5890c4" stroke-width="1.51"/><path d="M732,1019L743,1107L878,1088Z" fill="#5a8cc2" stroke="#5a8cc2" stroke-width="1.51"/><path d="M703,229L702,376L847,234Z" fill="#9cc7e2" stroke="#9cc7e2" stroke-width="1.51"/><path d="M765,502L688,732L833,693Z" fill="#74b0d6" stroke="#74b0d6" stroke-width="1.51"/><path d="M778,105L703,229L847,234Z" fill="#a3cae4" stroke="#a3cae4" stroke-width="1.51"/><path d="M694,866L732,1019L828,963Z" fill="#6198ca" stroke="#6198ca" stroke-width="1.51"/><path d="M694,866L631,947L732,1019Z" fill="#689ccb" stroke="#689ccb" stroke-width="1.51"/><path d="M632,1139L720,1270L743,1107Z" fill="#5e88bc" stroke="#5e88bc" stroke-width="1.51"/><path d="M634,713L688,732L765,502Z" fill="#79b3d7" stroke="#79b3d7" stroke-width="1.51"/><path d="M634,484L634,713L765,502Z" fill="#82b9da" stroke="#82b9da" stroke-width="1.51"/><path d="M702,376L634,484L765,502Z" fill="#8dc0de" stroke="#8dc0de" stroke-width="1.51"/><path d="M632,203L703,229L778,105Z" fill="#aacee5" stroke="#aacee5" stroke-width="1.51"/><path d="M611,40L632,203L778,105Z" fill="#b2d2e8" stroke="#b2d2e8" stroke-width="1.51"/><path d="M730,-39L611,40L778,105Z" fill="#b5d4e9" stroke="#b5d4e9" stroke-width="1.51"/><path d="M683,-179L571,-74L730,-39Z" fill="#c0dbec" stroke="#c0dbec" stroke-width="1.51"/><path d="M732,1019L632,1139L743,1107Z" fill="#618fc2" stroke="#618fc2" stroke-width="1.51"/><path d="M632,203L702,376L703,229Z" fill="#a3cbe2" stroke="#a3cbe2" stroke-width="1.51"/><path d="M632,1139L590,1260L720,1270Z" fill="#6185b7" stroke="#6185b7" stroke-width="1.51"/><path d="M631,947L632,1139L732,1019Z" fill="#6695c6" stroke="#6695c6" stroke-width="1.51"/><path d="M571,-74L611,40L730,-39Z" fill="#bdd9eb" stroke="#bdd9eb" stroke-width="1.51"/><path d="M688,732L634,713L694,866Z" fill="#72abd3" stroke="#72abd3" stroke-width="1.51"/><path d="M634,713L553,886L694,866Z" fill="#73a8d2" stroke="#73a8d2" stroke-width="1.51"/><path d="M539,445L634,484L702,376Z" fill="#95c4e0" stroke="#95c4e0" stroke-width="1.51"/><path d="M632,203L539,445L702,376Z" fill="#a0cae2" stroke="#a0cae2" stroke-width="1.51"/><path d="M553,886L631,947L694,866Z" fill="#6fa1ce" stroke="#6fa1ce" stroke-width="1.51"/><path d="M588,-217L571,-74L683,-179Z" fill="#c6dfee" stroke="#c6dfee" stroke-width="1.51"/><path d="M442,387L539,445L632,203Z" fill="#a5cce3" stroke="#a5cce3" stroke-width="1.51"/><path d="M386,580L634,713L634,484Z" fill="#89bbdc" stroke="#89bbdc" stroke-width="1.51"/><path d="M553,886L414,971L631,947Z" fill="#74a1cf" stroke="#74a1cf" stroke-width="1.51"/><path d="M414,265L442,387L632,203Z" fill="#aed1e6" stroke="#aed1e6" stroke-width="1.51"/><path d="M611,40L459,68L632,203Z" fill="#bad6ea" stroke="#bad6ea" stroke-width="1.51"/><path d="M631,947L414,971L632,1139Z" fill="#6f9aca" stroke="#6f9aca" stroke-width="1.51"/><path d="M414,971L441,1161L632,1139Z" fill="#7194c6" stroke="#7194c6" stroke-width="1.51"/><path d="M441,1161L590,1260L632,1139Z" fill="#698bbd" stroke="#698bbd" stroke-width="1.51"/><path d="M386,580L403,677L634,713Z" fill="#89b9dc" stroke="#89b9dc" stroke-width="1.51"/><path d="M467,859L553,886L634,713Z" fill="#79aad3" stroke="#79aad3" stroke-width="1.51"/><path d="M403,677L467,859L634,713Z" fill="#80b1d7" stroke="#80b1d7" stroke-width="1.51"/><path d="M539,445L386,580L634,484Z" fill="#94c2e0" stroke="#94c2e0" stroke-width="1.51"/><path d="M459,68L414,265L632,203Z" fill="#b8d5ea" stroke="#b8d5ea" stroke-width="1.51"/><path d="M571,-74L459,68L611,40Z" fill="#c1daed" stroke="#c1daed" stroke-width="1.51"/><path d="M100,-228L305,-196L432,-240Z" fill="#deeaf7" stroke="#deeaf7" stroke-width="1.51"/><path d="M429,-21L459,68L571,-74Z" fill="#c6ddee" stroke="#c6ddee" stroke-width="1.51"/><path d="M432,-240L571,-74L588,-217Z" fill="#cde2f1" stroke="#cde2f1" stroke-width="1.51"/><path d="M441,1161L451,1321L590,1260Z" fill="#6a87b7" stroke="#6a87b7" stroke-width="1.51"/><path d="M-182,-247L-20,-219L100,-228Z" fill="#ecf3fc" stroke="#ecf3fc" stroke-width="1.51"/><path d="M467,859L414,971L553,886Z" fill="#7aa5d1" stroke="#7aa5d1" stroke-width="1.51"/><path d="M432,-240L429,-21L571,-74Z" fill="#cde1f1" stroke="#cde1f1" stroke-width="1.51"/><path d="M442,387L386,580L539,445Z" fill="#9cc6e3" stroke="#9cc6e3" stroke-width="1.51"/><path d="M299,37L248,252L414,265Z" fill="#c2d9ed" stroke="#c2d9ed" stroke-width="1.51"/><path d="M251,997L262,1162L414,971Z" fill="#7e9ecd" stroke="#7e9ecd" stroke-width="1.51"/><path d="M305,-196L283,-32L429,-21Z" fill="#d4e3f4" stroke="#d4e3f4" stroke-width="1.51"/><path d="M305,-196L429,-21L432,-240Z" fill="#d5e5f4" stroke="#d5e5f4" stroke-width="1.51"/><path d="M414,971L262,1162L441,1161Z" fill="#7997c8" stroke="#7997c8" stroke-width="1.51"/><path d="M303,523L386,580L442,387Z" fill="#9fc7e3" stroke="#9fc7e3" stroke-width="1.51"/><path d="M310,1241L130,1310L451,1321Z" fill="#7488b5" stroke="#7488b5" stroke-width="1.51"/><path d="M441,1161L310,1241L451,1321Z" fill="#728aba" stroke="#728aba" stroke-width="1.51"/><path d="M299,37L414,265L459,68Z" fill="#c4daef" stroke="#c4daef" stroke-width="1.51"/><path d="M403,677L320,724L467,859Z" fill="#87b4d9" stroke="#87b4d9" stroke-width="1.51"/><path d="M272,860L414,971L467,859Z" fill="#81a9d4" stroke="#81a9d4" stroke-width="1.51"/><path d="M320,724L272,860L467,859Z" fill="#87b0d8" stroke="#87b0d8" stroke-width="1.51"/><path d="M414,265L323,336L442,387Z" fill="#b1d1e7" stroke="#b1d1e7" stroke-width="1.51"/><path d="M429,-21L299,37L459,68Z" fill="#cadef0" stroke="#cadef0" stroke-width="1.51"/><path d="M323,336L303,523L442,387Z" fill="#a9cde6" stroke="#a9cde6" stroke-width="1.51"/><path d="M262,1162L310,1241L441,1161Z" fill="#7890c2" stroke="#7890c2" stroke-width="1.51"/><path d="M283,-32L299,37L429,-21Z" fill="#cfe0f2" stroke="#cfe0f2" stroke-width="1.51"/><path d="M248,252L323,336L414,265Z" fill="#b9d5ea" stroke="#b9d5ea" stroke-width="1.51"/><path d="M272,860L251,997L414,971Z" fill="#82a7d3" stroke="#82a7d3" stroke-width="1.51"/><path d="M386,580L320,724L403,677Z" fill="#91bcde" stroke="#91bcde" stroke-width="1.51"/><path d="M168,133L248,252L299,37Z" fill="#caddf0" stroke="#caddf0" stroke-width="1.51"/><path d="M303,523L320,724L386,580Z" fill="#96c0e1" stroke="#96c0e1" stroke-width="1.51"/><path d="M168,133L179,215L248,252Z" fill="#c6dcee" stroke="#c6dcee" stroke-width="1.51"/><path d="M113,-53L283,-32L305,-196Z" fill="#d8e7f5" stroke="#d8e7f5" stroke-width="1.51"/><path d="M92,696L272,860L320,724Z" fill="#8fb8dc" stroke="#8fb8dc" stroke-width="1.51"/><path d="M303,523L111,553L320,724Z" fill="#9bc3e2" stroke="#9bc3e2" stroke-width="1.51"/><path d="M111,553L92,696L320,724Z" fill="#9ac1e1" stroke="#9ac1e1" stroke-width="1.51"/><path d="M87,385L303,523L323,336Z" fill="#aed0e7" stroke="#aed0e7" stroke-width="1.51"/><path d="M248,252L87,385L323,336Z" fill="#b9d6ea" stroke="#b9d6ea" stroke-width="1.51"/><path d="M87,385L111,553L303,523Z" fill="#a9cde7" stroke="#a9cde7" stroke-width="1.51"/><path d="M251,997L167,1014L262,1162Z" fill="#819ecd" stroke="#819ecd" stroke-width="1.51"/><path d="M100,-228L113,-53L305,-196Z" fill="#dfebf7" stroke="#dfebf7" stroke-width="1.51"/><path d="M262,1162L149,1178L310,1241Z" fill="#7b92c2" stroke="#7b92c2" stroke-width="1.51"/><path d="M149,1178L130,1310L310,1241Z" fill="#7b8fbd" stroke="#7b8fbd" stroke-width="1.51"/><path d="M92,696L121,875L272,860Z" fill="#90b6db" stroke="#90b6db" stroke-width="1.51"/><path d="M113,-53L168,133L283,-32Z" fill="#d4e4f3" stroke="#d4e4f3" stroke-width="1.51"/><path d="M283,-32L168,133L299,37Z" fill="#d0e1f2" stroke="#d0e1f2" stroke-width="1.51"/><path d="M121,875L167,1014L251,997Z" fill="#87a8d4" stroke="#87a8d4" stroke-width="1.51"/><path d="M167,1014L149,1178L262,1162Z" fill="#809aca" stroke="#809aca" stroke-width="1.51"/><path d="M121,875L251,997L272,860Z" fill="#88acd6" stroke="#88acd6" stroke-width="1.51"/><path d="M179,215L87,385L248,252Z" fill="#bfd9ec" stroke="#bfd9ec" stroke-width="1.51"/><path d="M17,1129L149,1178L167,1014Z" fill="#849dcc" stroke="#849dcc" stroke-width="1.51"/><path d="M-5,1040L17,1129L167,1014Z" fill="#88a2cf" stroke="#88a2cf" stroke-width="1.51"/><path d="M113,-53L-11,90L168,133Z" fill="#d5e4f4" stroke="#d5e4f4" stroke-width="1.51"/><path d="M168,133L12,196L179,215Z" fill="#cbdff0" stroke="#cbdff0" stroke-width="1.51"/><path d="M12,196L87,385L179,215Z" fill="#c4dcee" stroke="#c4dcee" stroke-width="1.51"/><path d="M100,-228L-3,-100L113,-53Z" fill="#e1ecf8" stroke="#e1ecf8" stroke-width="1.51"/><path d="M92,696L-5,819L121,875Z" fill="#94b9dd" stroke="#94b9dd" stroke-width="1.51"/><path d="M121,875L-5,1040L167,1014Z" fill="#8aa9d4" stroke="#8aa9d4" stroke-width="1.51"/><path d="M-11,90L12,196L168,133Z" fill="#d1e2f3" stroke="#d1e2f3" stroke-width="1.51"/><path d="M87,385L-41,496L111,553Z" fill="#afd0e8" stroke="#afd0e8" stroke-width="1.51"/><path d="M17,1129L-1,1328L130,1310Z" fill="#8091bd" stroke="#8091bd" stroke-width="1.51"/><path d="M17,1129L130,1310L149,1178Z" fill="#8194c3" stroke="#8194c3" stroke-width="1.51"/><path d="M-5,819L-5,1040L121,875Z" fill="#8fafd8" stroke="#8fafd8" stroke-width="1.51"/><path d="M-41,496L-31,730L92,696Z" fill="#a2c6e3" stroke="#a2c6e3" stroke-width="1.51"/><path d="M-20,-219L-3,-100L100,-228Z" fill="#e6f0fa" stroke="#e6f0fa" stroke-width="1.51"/><path d="M-41,496L92,696L111,553Z" fill="#a5c9e5" stroke="#a5c9e5" stroke-width="1.51"/><path d="M-3,-100L-11,90L113,-53Z" fill="#dce9f7" stroke="#dce9f7" stroke-width="1.51"/><path d="M-41,496L-122,576L-31,730Z" fill="#a8cbe6" stroke="#a8cbe6" stroke-width="1.51"/><path d="M12,196L-49,419L87,385Z" fill="#c1dbec" stroke="#c1dbec" stroke-width="1.51"/><path d="M-49,419L-41,496L87,385Z" fill="#b6d5ea" stroke="#b6d5ea" stroke-width="1.51"/><path d="M-31,730L-5,819L92,696Z" fill="#99bedf" stroke="#99bedf" stroke-width="1.51"/><path d="M-196,828L-152,1010L-5,819Z" fill="#98b6dc" stroke="#98b6dc" stroke-width="1.51"/><path d="M-152,1010L-205,1137L-5,1040Z" fill="#90a7d2" stroke="#90a7d2" stroke-width="1.51"/><path d="M-5,819L-152,1010L-5,1040Z" fill="#92aed8" stroke="#92aed8" stroke-width="1.51"/><path d="M-189,-76L-11,90L-3,-100Z" fill="#e1ecf8" stroke="#e1ecf8" stroke-width="1.51"/><path d="M-165,259L-49,419L12,196Z" fill="#c8dfef" stroke="#c8dfef" stroke-width="1.51"/><path d="M-5,1040L-205,1137L17,1129Z" fill="#8ca2ce" stroke="#8ca2ce" stroke-width="1.51"/><path d="M-205,1137L-133,1265L17,1129Z" fill="#8b9cc9" stroke="#8b9cc9" stroke-width="1.51"/><path d="M-133,1265L-1,1328L17,1129Z" fill="#8595c0" stroke="#8595c0" stroke-width="1.51"/><path d="M-11,90L-199,110L12,196Z" fill="#d7e6f5" stroke="#d7e6f5" stroke-width="1.51"/><path d="M-199,110L-165,259L12,196Z" fill="#d4e5f3" stroke="#d4e5f3" stroke-width="1.51"/><path d="M-189,-76L-199,110L-11,90Z" fill="#dfebf7" stroke="#dfebf7" stroke-width="1.51"/><path d="M-20,-219L-189,-76L-3,-100Z" fill="#e7f0fa" stroke="#e7f0fa" stroke-width="1.51"/><path d="M-182,-247L-189,-76L-20,-219Z" fill="#ecf4fc" stroke="#ecf4fc" stroke-width="1.51"/><path d="M-31,730L-196,828L-5,819Z" fill="#9bbddf" stroke="#9bbddf" stroke-width="1.51"/><path d="M-165,259L-173,426L-49,419Z" fill="#c3dded" stroke="#c3dded" stroke-width="1.51"/><path d="M-122,576L-193,716L-31,730Z" fill="#a5c7e4" stroke="#a5c7e4" stroke-width="1.51"/><path d="M-193,716L-196,828L-31,730Z" fill="#a0c2e1" stroke="#a0c2e1" stroke-width="1.51"/><path d="M-49,419L-173,426L-41,496Z" fill="#b8d7eb" stroke="#b8d7eb" stroke-width="1.51"/><path d="M-173,426L-122,576L-41,496Z" fill="#b3d3ea" stroke="#b3d3ea" stroke-width="1.51"/><path d="M-173,426L-193,716L-122,576Z" fill="#afcfe8" stroke="#afcfe8" stroke-width="1.51"/><path d="M-196,828L-205,1137L-152,1010Z" fill="#95aed7" stroke="#95aed7" stroke-width="1.51"/><path d="M-199,110L-173,426L-165,259Z" fill="#cfe4f1" stroke="#cfe4f1" stroke-width="1.51"/><path d="M-199,110L-193,716L-173,426Z" fill="#c0dbed" stroke="#c0dbed" stroke-width="1.51"/><path d="M-199,110L-189,-76L-182,-247Z" fill="#e8f1fb" stroke="#e8f1fb" stroke-width="1.51"/><path d="M-199,110L-196,828L-193,716Z" fill="#b2d2ea" stroke="#b2d2ea" stroke-width="1.51"/><path d="M-199,110L-205,1137L-196,828Z" fill="#a7c8e4" stroke="#a7c8e4" stroke-width="1.51"/></svg>